<?xml version="1.0" standalone="no"?>
<!DOCTYPE svg PUBLIC "-//W3C//DTD SVG 20010904//EN"
 "http://www.w3.org/TR/2001/REC-SVG-20010904/DTD/svg10.dtd">
<svg version="1.0" xmlns="http://www.w3.org/2000/svg"
 width="1280.000000pt" height="1059.000000pt" viewBox="0 0 1280.000000 1059.000000"
 preserveAspectRatio="xMidYMid meet">
<g transform="translate(0.000000,1059.000000) scale(0.100000,-0.100000)"
fill="red" stroke="none">
<path d="M7899 10586 c-2 -2 -58 -9 -124 -16 -616 -58 -1191 -269 -1834 -673
-126 -79 -164 -109 -276 -222 -231 -231 -421 -469 -1200 -1505 -819 -1089
-1008 -1327 -1274 -1604 -42 -43 -65 -73 -51 -66 50 26 200 131 296 208 141
113 222 202 369 407 539 752 1439 1921 1527 1984 19 13 19 12 5 -15 -9 -16
-145 -191 -303 -389 -158 -198 -328 -414 -377 -480 -313 -419 -492 -763 -582
-1121 -55 -218 -168 -572 -281 -879 -417 -1138 -920 -1913 -1495 -2302 -55
-37 -97 -68 -95 -70 7 -7 243 105 381 179 179 97 313 187 371 251 202 221 562
774 1003 1542 129 224 161 273 161 247 0 -19 -462 -1103 -593 -1392 -347 -764
-663 -1294 -1038 -1745 -106 -126 -375 -397 -496 -499 -109 -90 -197 -144
-308 -187 -482 -187 -974 -90 -1303 256 -187 197 -283 434 -286 705 -2 249 75
447 242 621 240 252 607 322 895 172 103 -54 213 -166 261 -266 52 -108 73
-225 58 -325 -31 -196 -165 -337 -353 -372 -60 -11 -139 -1 -188 24 -113 59
-171 194 -125 292 27 56 95 80 147 52 12 -7 23 -14 25 -15 2 0 -3 -14 -12 -31
-23 -45 6 -60 44 -22 32 32 27 95 -10 130 -58 54 -150 47 -220 -16 -54 -49
-74 -106 -68 -196 6 -85 30 -140 88 -198 158 -158 438 -137 609 46 170 181
197 427 75 674 -80 161 -231 289 -407 345 -485 154 -1016 -172 -1123 -688 -8
-40 -19 -94 -24 -120 -6 -27 -10 -70 -10 -96 0 -62 42 -279 70 -361 57 -165
167 -336 291 -456 132 -126 392 -251 621 -300 111 -24 342 -24 453 0 243 52
489 176 741 372 321 250 603 570 1197 1356 120 158 222 290 227 293 26 16 3
-43 -80 -201 -374 -720 -826 -1450 -1983 -3198 -240 -363 -435 -662 -432 -664
2 -3 37 24 77 60 176 156 753 625 1228 998 1045 820 1811 1342 2120 1443 116
39 284 52 640 52 244 -1 344 -5 445 -19 426 -58 741 -172 980 -355 33 -25 240
-223 460 -441 585 -578 740 -718 1062 -962 302 -228 428 -305 515 -310 l43 -3
3 150 c2 83 -1 211 -7 285 -6 74 -16 200 -21 279 -24 338 42 574 212 770 37
43 38 46 38 122 0 109 26 286 57 383 41 129 103 242 228 409 64 87 121 157
125 157 5 0 82 -26 172 -58 308 -111 388 -123 713 -110 341 14 415 31 510 119
59 54 158 186 195 260 31 61 55 174 47 217 -4 20 20 84 99 257 l104 230 101
65 c56 35 103 70 106 76 6 16 -110 189 -132 198 -9 3 -98 6 -198 6 -279 0
-266 20 38 56 l140 16 73 55 c40 30 75 60 78 68 3 7 -15 50 -40 96 -69 129
-80 179 -81 351 0 95 4 151 11 158 8 8 28 5 75 -11 76 -25 159 -22 279 11 70
20 94 21 420 18 343 -4 346 -4 435 -31 75 -23 246 -84 318 -112 9 -4 17 -3 17
3 0 15 -75 123 -175 251 -47 60 -85 116 -85 123 0 7 7 32 15 56 39 112 -41
203 -151 172 -25 -7 -46 -11 -47 -9 -2 2 -26 32 -55 65 -47 56 -52 66 -52 110
0 83 -45 135 -117 137 -28 1 -43 10 -77 48 -100 111 -354 429 -403 503 -29 45
-57 86 -61 91 -5 6 -113 50 -241 99 -128 50 -236 96 -239 104 -3 8 1 24 8 36
136 217 132 208 147 334 31 259 -12 382 -156 442 -38 15 -46 41 -31 97 23 80
-15 151 -90 170 -28 7 -41 20 -65 64 -65 116 -495 971 -495 985 0 27 41 95 83
138 58 59 164 205 172 238 11 45 -22 94 -127 189 -699 627 -1385 988 -2078
1093 -223 34 -554 58 -571 42z"/>
</g>
</svg>
